<svg xmlns="http://www.w3.org/2000/svg" xmlns:xlink="http://www.w3.org/1999/xlink" width="500" zoomAndPan="magnify" viewBox="0 0 375 374.999991" height="500" preserveAspectRatio="xMidYMid meet" version="1.0"><defs><g/><clipPath id="cdfbc5a814"><path d="M 128.417969 125.6875 L 144.484375 125.6875 L 144.484375 160.328125 L 128.417969 160.328125 Z M 128.417969 125.6875 " clip-rule="nonzero"/></clipPath><clipPath id="6da0737442"><path d="M 134.417969 125.6875 L 138.484375 125.6875 C 141.796875 125.6875 144.484375 128.375 144.484375 131.6875 L 144.484375 154.308594 C 144.484375 157.621094 141.796875 160.308594 138.484375 160.308594 L 134.417969 160.308594 C 131.101562 160.308594 128.417969 157.621094 128.417969 154.308594 L 128.417969 131.6875 C 128.417969 128.375 131.101562 125.6875 134.417969 125.6875 Z M 134.417969 125.6875 " clip-rule="nonzero"/></clipPath><clipPath id="39e2a6cde9"><path d="M 0.417969 0.6875 L 16.484375 0.6875 L 16.484375 35.320312 L 0.417969 35.320312 Z M 0.417969 0.6875 " clip-rule="nonzero"/></clipPath><clipPath id="5a5bebf927"><path d="M 6.417969 0.6875 L 10.484375 0.6875 C 13.796875 0.6875 16.484375 3.375 16.484375 6.6875 L 16.484375 29.308594 C 16.484375 32.621094 13.796875 35.308594 10.484375 35.308594 L 6.417969 35.308594 C 3.101562 35.308594 0.417969 32.621094 0.417969 29.308594 L 0.417969 6.6875 C 0.417969 3.375 3.101562 0.6875 6.417969 0.6875 Z M 6.417969 0.6875 " clip-rule="nonzero"/></clipPath><clipPath id="dd8c75aa44"><rect x="0" width="17" y="0" height="36"/></clipPath><clipPath id="981ec01071"><path d="M 158.535156 135.191406 L 216.464844 135.191406 L 216.464844 150.804688 L 158.535156 150.804688 Z M 158.535156 135.191406 " clip-rule="nonzero"/></clipPath><clipPath id="32ac88e12b"><path d="M 0.535156 0.191406 L 58.464844 0.191406 L 58.464844 15.804688 L 0.535156 15.804688 Z M 0.535156 0.191406 " clip-rule="nonzero"/></clipPath><clipPath id="7bd5a770c4"><rect x="0" width="59" y="0" height="16"/></clipPath><clipPath id="be8f052c76"><path d="M 230.515625 125.6875 L 246.582031 125.6875 L 246.582031 160.328125 L 230.515625 160.328125 Z M 230.515625 125.6875 " clip-rule="nonzero"/></clipPath><clipPath id="73d3773c19"><path d="M 236.515625 125.6875 L 240.582031 125.6875 C 243.898438 125.6875 246.582031 128.375 246.582031 131.6875 L 246.582031 154.308594 C 246.582031 157.621094 243.898438 160.308594 240.582031 160.308594 L 236.515625 160.308594 C 233.203125 160.308594 230.515625 157.621094 230.515625 154.308594 L 230.515625 131.6875 C 230.515625 128.375 233.203125 125.6875 236.515625 125.6875 Z M 236.515625 125.6875 " clip-rule="nonzero"/></clipPath><clipPath id="6e616ee32d"><path d="M 0.515625 0.6875 L 16.582031 0.6875 L 16.582031 35.320312 L 0.515625 35.320312 Z M 0.515625 0.6875 " clip-rule="nonzero"/></clipPath><clipPath id="9b723dd093"><path d="M 6.515625 0.6875 L 10.582031 0.6875 C 13.898438 0.6875 16.582031 3.375 16.582031 6.6875 L 16.582031 29.308594 C 16.582031 32.621094 13.898438 35.308594 10.582031 35.308594 L 6.515625 35.308594 C 3.203125 35.308594 0.515625 32.621094 0.515625 29.308594 L 0.515625 6.6875 C 0.515625 3.375 3.203125 0.6875 6.515625 0.6875 Z M 6.515625 0.6875 " clip-rule="nonzero"/></clipPath><clipPath id="5c6d7240ab"><rect x="0" width="17" y="0" height="36"/></clipPath><clipPath id="fdd52dbc97"><path d="M 150.503906 119.804688 L 166.570312 119.804688 L 166.570312 166.246094 L 150.503906 166.246094 Z M 150.503906 119.804688 " clip-rule="nonzero"/></clipPath><clipPath id="f4eb8ea5d7"><path d="M 156.503906 119.804688 L 160.570312 119.804688 C 163.882812 119.804688 166.570312 122.488281 166.570312 125.804688 L 166.570312 160.191406 C 166.570312 163.503906 163.882812 166.191406 160.570312 166.191406 L 156.503906 166.191406 C 153.1875 166.191406 150.503906 163.503906 150.503906 160.191406 L 150.503906 125.804688 C 150.503906 122.488281 153.1875 119.804688 156.503906 119.804688 Z M 156.503906 119.804688 " clip-rule="nonzero"/></clipPath><clipPath id="9fd30a5bbc"><path d="M 0.503906 0.804688 L 16.570312 0.804688 L 16.570312 47.246094 L 0.503906 47.246094 Z M 0.503906 0.804688 " clip-rule="nonzero"/></clipPath><clipPath id="8f3f2f68e6"><path d="M 6.503906 0.804688 L 10.570312 0.804688 C 13.882812 0.804688 16.570312 3.488281 16.570312 6.804688 L 16.570312 41.191406 C 16.570312 44.503906 13.882812 47.191406 10.570312 47.191406 L 6.503906 47.191406 C 3.1875 47.191406 0.503906 44.503906 0.503906 41.191406 L 0.503906 6.804688 C 0.503906 3.488281 3.1875 0.804688 6.503906 0.804688 Z M 6.503906 0.804688 " clip-rule="nonzero"/></clipPath><clipPath id="a9c92bfd6c"><rect x="0" width="17" y="0" height="48"/></clipPath><clipPath id="ce6e62e279"><path d="M 208.429688 119.804688 L 224.496094 119.804688 L 224.496094 166.246094 L 208.429688 166.246094 Z M 208.429688 119.804688 " clip-rule="nonzero"/></clipPath><clipPath id="dd58a6fd3a"><path d="M 214.429688 119.804688 L 218.496094 119.804688 C 221.8125 119.804688 224.496094 122.488281 224.496094 125.804688 L 224.496094 160.191406 C 224.496094 163.503906 221.8125 166.191406 218.496094 166.191406 L 214.429688 166.191406 C 211.117188 166.191406 208.429688 163.503906 208.429688 160.191406 L 208.429688 125.804688 C 208.429688 122.488281 211.117188 119.804688 214.429688 119.804688 Z M 214.429688 119.804688 " clip-rule="nonzero"/></clipPath><clipPath id="78e6372843"><path d="M 0.429688 0.804688 L 16.496094 0.804688 L 16.496094 47.246094 L 0.429688 47.246094 Z M 0.429688 0.804688 " clip-rule="nonzero"/></clipPath><clipPath id="0b1f2142a6"><path d="M 6.429688 0.804688 L 10.496094 0.804688 C 13.8125 0.804688 16.496094 3.488281 16.496094 6.804688 L 16.496094 41.191406 C 16.496094 44.503906 13.8125 47.191406 10.496094 47.191406 L 6.429688 47.191406 C 3.117188 47.191406 0.429688 44.503906 0.429688 41.191406 L 0.429688 6.804688 C 0.429688 3.488281 3.117188 0.804688 6.429688 0.804688 Z M 6.429688 0.804688 " clip-rule="nonzero"/></clipPath><clipPath id="f46c9b4e77"><rect x="0" width="17" y="0" height="48"/></clipPath></defs><g clip-path="url(#cdfbc5a814)"><g clip-path="url(#6da0737442)"><g transform="matrix(1, 0, 0, 1, 128, 125)"><g clip-path="url(#dd8c75aa44)"><g clip-path="url(#39e2a6cde9)"><g clip-path="url(#5a5bebf927)"><path fill="#ff914d" d="M 0.417969 0.6875 L 16.484375 0.6875 L 16.484375 35.328125 L 0.417969 35.328125 Z M 0.417969 0.6875 " fill-opacity="1" fill-rule="nonzero"/></g></g></g></g></g></g><g clip-path="url(#981ec01071)"><g transform="matrix(1, 0, 0, 1, 158, 135)"><g clip-path="url(#7bd5a770c4)"><g clip-path="url(#32ac88e12b)"><path fill="#ff914d" d="M 0.535156 0.191406 L 58.476562 0.191406 L 58.476562 15.804688 L 0.535156 15.804688 Z M 0.535156 0.191406 " fill-opacity="1" fill-rule="nonzero"/></g></g></g></g><g clip-path="url(#be8f052c76)"><g clip-path="url(#73d3773c19)"><g transform="matrix(1, 0, 0, 1, 230, 125)"><g clip-path="url(#5c6d7240ab)"><g clip-path="url(#6e616ee32d)"><g clip-path="url(#9b723dd093)"><path fill="#ff914d" d="M 0.515625 0.6875 L 16.582031 0.6875 L 16.582031 35.328125 L 0.515625 35.328125 Z M 0.515625 0.6875 " fill-opacity="1" fill-rule="nonzero"/></g></g></g></g></g></g><g clip-path="url(#fdd52dbc97)"><g clip-path="url(#f4eb8ea5d7)"><g transform="matrix(1, 0, 0, 1, 150, 119)"><g clip-path="url(#a9c92bfd6c)"><g clip-path="url(#9fd30a5bbc)"><g clip-path="url(#8f3f2f68e6)"><path fill="#ff914d" d="M 0.503906 0.804688 L 16.570312 0.804688 L 16.570312 47.183594 L 0.503906 47.183594 Z M 0.503906 0.804688 " fill-opacity="1" fill-rule="nonzero"/></g></g></g></g></g></g><g clip-path="url(#ce6e62e279)"><g clip-path="url(#dd58a6fd3a)"><g transform="matrix(1, 0, 0, 1, 208, 119)"><g clip-path="url(#f46c9b4e77)"><g clip-path="url(#78e6372843)"><g clip-path="url(#0b1f2142a6)"><path fill="#ff914d" d="M 0.429688 0.804688 L 16.496094 0.804688 L 16.496094 47.183594 L 0.429688 47.183594 Z M 0.429688 0.804688 " fill-opacity="1" fill-rule="nonzero"/></g></g></g></g></g></g><g fill="#012759" fill-opacity="1"><g transform="translate(75.350735, 241.151953)"><g><path d="M 12.90625 0.484375 C 9.175781 0.484375 6.398438 -0.820312 4.578125 -3.4375 C 2.765625 -6.0625 1.859375 -10.035156 1.859375 -15.359375 L 1.859375 -37.5625 C 1.859375 -42.320312 2.914062 -45.921875 5.03125 -48.359375 C 7.15625 -50.796875 10.316406 -52.015625 14.515625 -52.015625 C 17.921875 -52.015625 20.5625 -51.332031 22.4375 -49.96875 C 24.320312 -48.613281 25.625 -46.632812 26.34375 -44.03125 C 27.0625 -41.4375 27.421875 -38.097656 27.421875 -34.015625 L 17.34375 -34.015625 L 17.34375 -38.640625 C 17.34375 -39.878906 17.171875 -40.835938 16.828125 -41.515625 C 16.484375 -42.203125 15.875 -42.546875 15 -42.546875 C 13.039062 -42.546875 12.0625 -41.265625 12.0625 -38.703125 L 12.0625 -13.734375 C 12.0625 -12.179688 12.257812 -11.003906 12.65625 -10.203125 C 13.0625 -9.398438 13.765625 -9 14.765625 -9 C 15.765625 -9 16.460938 -9.398438 16.859375 -10.203125 C 17.253906 -11.003906 17.453125 -12.179688 17.453125 -13.734375 L 17.453125 -21.125 L 14.703125 -21.125 L 14.703125 -30 L 27.296875 -30 L 27.296875 0 L 23.15625 0 L 21.421875 -4.3125 C 19.578125 -1.113281 16.738281 0.484375 12.90625 0.484375 Z M 12.90625 0.484375 "/></g></g></g><g fill="#012759" fill-opacity="1"><g transform="translate(104.450701, 241.151953)"><g><path d="M 2.28125 0 L 2.28125 -51.546875 L 22.921875 -51.546875 L 22.921875 -41.578125 L 12.78125 -41.578125 L 12.78125 -31.5625 L 22.5 -31.5625 L 22.5 -21.84375 L 12.78125 -21.84375 L 12.78125 -10.015625 L 23.578125 -10.015625 L 23.578125 0 Z M 2.28125 0 "/></g></g></g><g fill="#012759" fill-opacity="1"><g transform="translate(129.170681, 241.151953)"><g><path d="M 0.90625 0 L 5.875 -51.546875 L 23.34375 -51.546875 L 28.265625 0 L 18.484375 0 L 17.765625 -8.34375 L 11.515625 -8.34375 L 10.921875 0 Z M 12.296875 -16.5625 L 16.984375 -16.5625 L 14.703125 -42.78125 L 14.21875 -42.78125 Z M 12.296875 -16.5625 "/></g></g></g><g fill="#012759" fill-opacity="1"><g transform="translate(158.270647, 241.151953)"><g><path d="M 2.28125 -51.546875 L 18.125 -51.546875 C 20.644531 -51.546875 22.59375 -50.972656 23.96875 -49.828125 C 25.351562 -48.691406 26.285156 -47.09375 26.765625 -45.03125 C 27.242188 -42.96875 27.484375 -40.335938 27.484375 -37.140625 C 27.484375 -34.222656 27.101562 -31.941406 26.34375 -30.296875 C 25.582031 -28.660156 24.257812 -27.519531 22.375 -26.875 C 23.9375 -26.5625 25.066406 -25.785156 25.765625 -24.546875 C 26.460938 -23.304688 26.8125 -21.625 26.8125 -19.5 L 26.703125 0 L 16.625 0 L 16.625 -20.15625 C 16.625 -21.59375 16.34375 -22.507812 15.78125 -22.90625 C 15.21875 -23.3125 14.195312 -23.515625 12.71875 -23.515625 L 12.71875 0 L 2.28125 0 Z M 15.234375 -32.453125 C 16.679688 -32.453125 17.40625 -34.015625 17.40625 -37.140625 C 17.40625 -38.503906 17.34375 -39.523438 17.21875 -40.203125 C 17.101562 -40.878906 16.882812 -41.347656 16.5625 -41.609375 C 16.238281 -41.867188 15.78125 -42 15.1875 -42 L 12.78125 -42 L 12.78125 -32.453125 Z M 15.234375 -32.453125 "/></g></g></g><g fill="#012759" fill-opacity="1"><g transform="translate(186.890614, 241.151953)"><g><path d="M 14.515625 0.484375 C 9.835938 0.484375 6.457031 -0.675781 4.375 -3 C 2.300781 -5.320312 1.265625 -9.0625 1.265625 -14.21875 L 1.265625 -19.265625 L 11.40625 -19.265625 L 11.40625 -12.84375 C 11.40625 -10.28125 12.222656 -9 13.859375 -9 C 14.773438 -9 15.410156 -9.269531 15.765625 -9.8125 C 16.128906 -10.351562 16.3125 -11.265625 16.3125 -12.546875 C 16.3125 -14.222656 16.113281 -15.609375 15.71875 -16.703125 C 15.320312 -17.804688 14.8125 -18.726562 14.1875 -19.46875 C 13.570312 -20.207031 12.460938 -21.359375 10.859375 -22.921875 L 6.421875 -27.359375 C 2.984375 -30.722656 1.265625 -34.441406 1.265625 -38.515625 C 1.265625 -42.921875 2.269531 -46.269531 4.28125 -48.5625 C 6.300781 -50.863281 9.253906 -52.015625 13.140625 -52.015625 C 17.773438 -52.015625 21.113281 -50.785156 23.15625 -48.328125 C 25.195312 -45.867188 26.21875 -42.019531 26.21875 -36.78125 L 15.71875 -36.78125 L 15.65625 -40.3125 C 15.65625 -41 15.460938 -41.539062 15.078125 -41.9375 C 14.703125 -42.34375 14.175781 -42.546875 13.5 -42.546875 C 12.695312 -42.546875 12.09375 -42.320312 11.6875 -41.875 C 11.289062 -41.4375 11.09375 -40.835938 11.09375 -40.078125 C 11.09375 -38.398438 12.054688 -36.660156 13.984375 -34.859375 L 19.984375 -29.09375 C 21.378906 -27.738281 22.535156 -26.453125 23.453125 -25.234375 C 24.378906 -24.015625 25.117188 -22.570312 25.671875 -20.90625 C 26.234375 -19.25 26.515625 -17.28125 26.515625 -15 C 26.515625 -9.914062 25.582031 -6.0625 23.71875 -3.4375 C 21.863281 -0.820312 18.796875 0.484375 14.515625 0.484375 Z M 14.515625 0.484375 "/></g></g></g><g fill="#012759" fill-opacity="1"><g transform="translate(214.550581, 241.151953)"><g><path d="M 8.515625 0 L 8.515625 -16.984375 L 0.296875 -51.546875 L 10.5 -51.546875 L 13.375 -34.078125 L 16.265625 -51.546875 L 26.453125 -51.546875 L 18.234375 -16.984375 L 18.234375 0 Z M 8.515625 0 "/></g></g></g><g fill="#012759" fill-opacity="1"><g transform="translate(241.310551, 241.151953)"><g><path d="M 2.28125 0 L 2.28125 -51.546875 L 12.90625 -51.546875 L 17.640625 -26.875 L 17.640625 -51.546875 L 27.59375 -51.546875 L 27.59375 0 L 17.515625 0 L 12.359375 -25.796875 L 12.359375 0 Z M 2.28125 0 "/></g></g></g><g fill="#012759" fill-opacity="1"><g transform="translate(271.190535, 241.151953)"><g><path d="M 14.28125 0.484375 C 10.519531 0.484375 7.507812 -0.691406 5.25 -3.046875 C 2.988281 -5.410156 1.859375 -8.65625 1.859375 -12.78125 L 1.859375 -36.546875 C 1.859375 -41.660156 2.878906 -45.515625 4.921875 -48.109375 C 6.960938 -50.710938 10.160156 -52.015625 14.515625 -52.015625 C 18.316406 -52.015625 21.378906 -50.972656 23.703125 -48.890625 C 26.023438 -46.816406 27.1875 -43.820312 27.1875 -39.90625 L 27.1875 -31.015625 L 16.921875 -31.015625 L 16.921875 -38.640625 C 16.921875 -40.117188 16.738281 -41.140625 16.375 -41.703125 C 16.019531 -42.265625 15.398438 -42.546875 14.515625 -42.546875 C 13.597656 -42.546875 12.96875 -42.222656 12.625 -41.578125 C 12.289062 -40.941406 12.125 -40.003906 12.125 -38.765625 L 12.125 -12.90625 C 12.125 -11.539062 12.320312 -10.546875 12.71875 -9.921875 C 13.113281 -9.304688 13.710938 -9 14.515625 -9 C 16.117188 -9 16.921875 -10.300781 16.921875 -12.90625 L 16.921875 -22.203125 L 27.296875 -22.203125 L 27.296875 -12.484375 C 27.296875 -3.835938 22.957031 0.484375 14.28125 0.484375 Z M 14.28125 0.484375 "/></g></g></g></svg>