<svg xmlns="http://www.w3.org/2000/svg"
    xmlns:xlink="http://www.w3.org/1999/xlink"
    viewBox="0 0 375 375"
    preserveAspectRatio="xMidYMid meet">

  <!-- scale the entire artwork so it occupies more of the viewBox -->
  <g transform="translate(187.5,187.5) scale(3) translate(-187,-150)">
    <defs>
      <clipPath id="cdfbc5a814"><path d="M 128.417969 125.6875 L 144.484375 125.6875 L 144.484375 160.328125 L 128.417969 160.328125 Z" /></clipPath>
      <clipPath id="6da0737442"><path d="M 134.417969 125.6875 L 138.484375 125.6875 C 141.796875 125.6875 144.484375 128.375 144.484375 131.6875 L 144.484375 154.308594 C 144.484375 157.621094 141.796875 160.308594 138.484375 160.308594 L 134.417969 160.308594 C 131.101562 160.308594 128.417969 157.621094 128.417969 154.308594 L 128.417969 131.6875 C 128.417969 128.375 131.101562 125.6875 134.417969 125.6875 Z" /></clipPath>
      <clipPath id="39e2a6cde9"><path d="M 0.417969 0.6875 L 16.484375 0.6875 L 16.484375 35.320312 L 0.417969 35.320312 Z" /></clipPath>
      <clipPath id="5a5bebf927"><path d="M 6.417969 0.6875 L 10.484375 0.6875 C 13.796875 0.6875 16.484375 3.375 16.484375 6.6875 L 16.484375 29.308594 C 16.484375 32.621094 13.796875 35.308594 10.484375 35.308594 L 6.417969 35.308594 C 3.101562 35.308594 0.417969 32.621094 0.417969 29.308594 L 0.417969 6.6875 C 0.417969 3.375 3.101562 0.6875 6.417969 0.6875 Z" /></clipPath>
      <clipPath id="981ec01071"><path d="M 158.535156 135.191406 L 216.464844 135.191406 L 216.464844 150.804688 L 158.535156 150.804688 Z" /></clipPath>
      <clipPath id="be8f052c76"><path d="M 230.515625 125.6875 L 246.582031 125.6875 L 246.582031 160.328125 L 230.515625 160.328125 Z" /></clipPath>
      <clipPath id="73d3773c19"><path d="M 236.515625 125.6875 L 240.582031 125.6875 C 243.898438 125.6875 246.582031 128.375 246.582031 131.6875 L 246.582031 154.308594 C 246.582031 157.621094 243.898438 160.308594 240.582031 160.308594 L 236.515625 160.308594 C 233.203125 160.308594 230.515625 157.621094 230.515625 154.308594 L 230.515625 131.6875 C 230.515625 128.375 233.203125 125.6875 236.515625 125.6875 Z" /></clipPath>
      <clipPath id="fdd52dbc97"><path d="M 150.503906 119.804688 L 166.570312 119.804688 L 166.570312 166.246094 L 150.503906 166.246094 Z" /></clipPath>
      <clipPath id="f4eb8ea5d7"><path d="M 156.503906 119.804688 L 160.570312 119.804688 C 163.882812 119.804688 166.570312 122.488281 166.570312 125.804688 L 166.570312 160.191406 C 166.570312 163.503906 163.882812 166.191406 160.570312 166.191406 L 156.503906 166.191406 C 153.1875 166.191406 150.503906 163.503906 150.503906 160.191406 L 150.503906 125.804688 C 150.503906 122.488281 153.1875 119.804688 156.503906 119.804688 Z" /></clipPath>
      <clipPath id="ce6e62e279"><path d="M 208.429688 119.804688 L 224.496094 119.804688 L 224.496094 166.246094 L 208.429688 166.246094 Z" /></clipPath>
      <clipPath id="dd58a6fd3a"><path d="M 214.429688 119.804688 L 218.496094 119.804688 C 221.8125 119.804688 224.496094 122.488281 224.496094 125.804688 L 224.496094 160.191406 C 224.496094 163.503906 221.8125 166.191406 218.496094 166.191406 L 214.429688 166.191406 C 211.117188 166.191406 208.429688 163.503906 208.429688 160.191406 L 208.429688 125.804688 C 208.429688 122.488281 211.117188 119.804688 214.429688 119.804688 Z" /></clipPath>
    </defs>

    <g clip-path="url(#cdfbc5a814)">
      <g clip-path="url(#6da0737442)">
        <g transform="matrix(1, 0, 0, 1, 128, 125)">
          <path fill="#ff914d" d="M 0.417969 0.6875 L 16.484375 0.6875 L 16.484375 35.328125 L 0.417969 35.328125 Z" />
        </g>
      </g>
    </g>

    <g clip-path="url(#981ec01071)">
      <g transform="matrix(1, 0, 0, 1, 158, 135)">
        <path fill="#ff914d" d="M 0.535156 0.191406 L 58.476562 0.191406 L 58.476562 15.804688 L 0.535156 15.804688 Z" />
      </g>
    </g>

    <g clip-path="url(#be8f052c76)">
      <g clip-path="url(#73d3773c19)">
        <g transform="matrix(1, 0, 0, 1, 230, 125)">
          <path fill="#ff914d" d="M 0.515625 0.6875 L 16.582031 0.6875 L 16.582031 35.328125 L 0.515625 35.328125 Z" />
        </g>
      </g>
    </g>

    <g clip-path="url(#fdd52dbc97)">
      <g clip-path="url(#f4eb8ea5d7)">
        <g transform="matrix(1, 0, 0, 1, 150, 119)">
          <path fill="#ff914d" d="M 0.503906 0.804688 L 16.570312 0.804688 L 16.570312 47.183594 L 0.503906 47.183594 Z" />
        </g>
      </g>
    </g>

    <g clip-path="url(#ce6e62e279)">
      <g clip-path="url(#dd58a6fd3a)">
        <g transform="matrix(1, 0, 0, 1, 208, 119)">
          <path fill="#ff914d" d="M 0.429688 0.804688 L 16.496094 0.804688 L 16.496094 47.183594 L 0.429688 47.183594 Z" />
        </g>
      </g>
    </g>
  </g>
</svg>